<?xml version="1.0" standalone="no"?>
<!DOCTYPE svg PUBLIC "-//W3C//DTD SVG 20010904//EN"
 "http://www.w3.org/TR/2001/REC-SVG-20010904/DTD/svg10.dtd">
<svg version="1.0" xmlns="http://www.w3.org/2000/svg"
 width="1280.000000pt" height="794.000000pt" viewBox="0 0 1280.000000 794.000000"
 preserveAspectRatio="xMidYMid meet">
<g transform="translate(0.000000,794.000000) scale(0.100000,-0.100000)"
fill="#000000" stroke="none">
<path d="M455 7916 c-78 -28 -145 -75 -223 -155 -117 -119 -174 -205 -213
-320 -25 -71 -24 -91 7 -186 34 -106 84 -198 168 -314 388 -537 788 -865 1368
-1125 123 -55 201 -97 291 -160 127 -87 145 -108 150 -171 2 -25 -1 -29 -18
-27 -76 12 -187 13 -220 2 -57 -19 -111 -74 -183 -185 -69 -108 -121 -168
-164 -191 -16 -8 -28 -18 -28 -23 0 -5 31 -47 70 -93 38 -45 70 -89 70 -97 0
-7 -21 -36 -47 -65 -62 -69 -137 -185 -162 -250 -53 -143 -51 -251 9 -426 27
-77 43 -148 50 -215 42 -379 179 -823 372 -1209 352 -702 1020 -1421 1736
-1868 257 -160 477 -269 832 -412 129 -51 307 -123 395 -159 368 -149 604
-203 1035 -237 74 -6 182 -15 240 -20 134 -13 346 -13 480 0 58 5 173 14 255
20 325 23 637 68 850 121 304 76 500 169 775 369 34 25 110 61 200 95 317 121
680 325 925 521 197 158 394 355 553 554 211 263 567 859 764 1275 255 543
389 1117 359 1546 -6 85 -14 199 -18 255 l-6 101 99 70 c111 79 180 148 189
190 4 15 8 34 10 40 9 27 -18 185 -31 190 -8 3 -93 -14 -189 -38 l-175 -44
-68 72 c-73 78 -104 93 -149 70 -38 -20 -115 -103 -192 -207 l-64 -85 44 -3
c191 -11 271 -38 310 -105 22 -39 24 -52 24 -174 0 -82 -4 -136 -11 -143 -6
-6 -102 -42 -213 -80 -225 -78 -221 -78 -270 -9 -43 59 -55 123 -48 258 8 135
0 178 -42 237 l-31 43 47 58 c222 276 468 510 700 667 133 89 223 136 430 222
512 213 870 475 1127 825 89 120 125 191 156 306 39 148 -5 298 -125 419 -75
76 -144 106 -262 112 -106 5 -164 -12 -322 -95 -574 -302 -801 -481 -1140
-898 -292 -358 -416 -487 -1071 -1111 -332 -316 -354 -335 -555 -475 -301
-210 -436 -290 -545 -323 -61 -19 -448 -42 -461 -29 -5 5 0 60 11 122 18 104
19 118 5 171 -20 78 -19 116 5 140 44 44 109 38 199 -20 120 -77 110 -76 185
-21 175 130 234 153 387 152 l106 0 81 74 c44 41 83 75 86 75 3 0 28 -30 56
-66 27 -37 50 -62 50 -55 0 7 -11 51 -24 99 -48 175 -49 188 -21 249 38 83 34
111 -21 163 -51 48 -59 63 -69 140 -11 92 -25 133 -64 185 -32 44 -36 56 -36
110 0 48 7 74 33 127 26 52 32 75 27 98 -4 16 -11 30 -17 30 -6 0 -55 -12
-109 -26 -54 -15 -105 -24 -113 -21 -8 3 -74 82 -146 176 -73 94 -137 171
-142 171 -31 0 -154 -79 -197 -126 -78 -86 -101 -191 -78 -356 11 -76 -2 -75
-45 2 l-33 60 -125 2 c-227 5 -443 -3 -495 -17 -96 -27 -159 -95 -195 -213
-24 -78 -26 -132 -5 -132 8 0 57 19 107 42 118 53 192 61 253 26 l40 -24 0
-194 0 -195 -47 -23 c-60 -30 -150 -31 -278 -1 -137 31 -231 30 -298 -4 -30
-15 -57 -27 -62 -27 -4 0 -13 30 -19 68 -21 119 -41 179 -73 209 l-30 28 -148
0 c-81 0 -151 2 -154 5 -3 3 73 108 169 234 96 126 175 232 175 237 0 5 -19
18 -42 30 -68 34 -107 67 -129 111 -19 37 -20 51 -14 152 5 95 3 127 -18 229
-14 65 -27 120 -29 122 -3 3 -39 -15 -82 -39 -42 -24 -139 -67 -214 -96 -75
-28 -168 -68 -207 -88 -74 -38 -180 -136 -169 -154 11 -17 232 -1 307 22 79
25 146 69 199 131 23 27 45 49 50 49 4 0 8 -147 8 -327 l0 -327 -61 -102 c-33
-57 -67 -125 -75 -151 -34 -112 35 -162 271 -195 l90 -13 18 -55 c28 -84 33
-197 10 -240 -37 -72 -186 -116 -429 -127 -106 -5 -130 -3 -192 16 -42 12 -91
37 -123 61 -33 25 -64 40 -82 40 -29 0 -181 -37 -397 -96 -73 -20 -128 -30
-133 -25 -15 15 52 128 109 185 91 91 168 124 434 185 175 41 245 67 219 81
-8 5 -42 14 -75 21 -53 11 -76 10 -164 -5 -57 -9 -107 -13 -111 -9 -4 4 -4 53
1 108 12 125 12 175 3 175 -5 0 -21 -21 -37 -48 -41 -66 -84 -110 -116 -117
-15 -3 -47 1 -71 9 -24 9 -47 16 -51 16 -5 0 -8 -30 -8 -67 0 -179 -98 -330
-277 -429 -37 -20 -114 -64 -171 -97 -189 -109 -291 -129 -427 -83 -38 14 -71
23 -73 21 -2 -1 -12 -58 -23 -126 -11 -68 -23 -127 -27 -131 -10 -10 -685 41
-696 52 -9 9 9 410 21 474 8 42 -9 31 -80 -53 -34 -41 -67 -76 -72 -78 -6 -2
-52 53 -103 121 -75 100 -96 123 -112 119 -24 -6 -24 -3 0 -83 27 -88 25 -129
-10 -217 -17 -41 -30 -76 -30 -79 0 -2 54 -4 120 -4 l120 0 0 -24 c0 -42 -61
-320 -74 -333 -12 -14 -352 -106 -372 -101 -15 4 -256 297 -252 308 2 3 22 45
45 91 53 104 73 181 73 279 0 90 -11 134 -56 223 l-35 68 93 120 c51 66 109
145 128 176 33 54 35 60 37 161 2 58 7 120 13 137 13 38 74 100 92 93 8 -3 34
-96 67 -234 98 -420 104 -444 113 -444 4 0 87 61 184 135 97 74 182 135 189
135 17 0 18 -4 45 -157 12 -68 27 -123 33 -123 35 0 104 49 157 113 33 39 60
76 60 82 0 19 -102 110 -151 136 -35 19 -60 24 -124 24 -69 0 -89 -4 -145 -31
-36 -17 -90 -50 -120 -72 -30 -23 -58 -38 -62 -34 -11 11 -45 209 -58 342 -13
123 -25 166 -54 199 -61 68 -200 68 -274 -2 -54 -50 -91 -161 -92 -272 -1 -38
-4 -88 -8 -109 l-7 -39 -90 -24 c-265 -70 -283 -154 -108 -516 74 -152 74
-147 -2 -168 -69 -19 -175 -6 -252 31 -56 27 -91 56 -201 169 -290 297 -483
521 -587 681 -24 36 -80 133 -125 215 -194 355 -292 458 -884 933 -336 270
-392 305 -583 368 -119 39 -155 41 -238 10z m337 -245 c81 -21 156 -55 227
-104 73 -50 179 -146 222 -200 37 -47 41 -55 36 -96 -10 -90 -54 -92 -305 -11
-190 61 -343 102 -350 95 -2 -2 19 -44 47 -92 88 -153 146 -311 166 -455 l6
-47 35 21 c67 40 133 19 199 -61 46 -57 232 -224 274 -247 34 -19 51 -21 133
-17 81 4 97 2 125 -16 40 -25 71 -74 107 -167 l28 -70 56 4 c32 2 58 5 59 6 1
1 -26 90 -62 197 l-64 194 -128 57 c-70 31 -133 57 -140 57 -8 1 -13 -22 -15
-66 l-3 -68 -35 0 -34 0 -23 95 c-34 146 -37 140 50 140 131 0 222 -45 300
-146 40 -52 170 -144 184 -130 3 3 -4 42 -15 88 -11 45 -18 86 -16 90 16 25
100 -17 109 -55 4 -15 -3 -45 -20 -81 l-27 -58 18 -72 c55 -231 186 -431 389
-595 71 -58 189 -141 200 -141 3 0 3 15 0 34 -6 29 -3 36 15 46 16 9 25 8 37
-2 51 -41 1443 -1483 1443 -1494 0 -32 -145 -38 -227 -11 -84 29 -180 105
-415 330 -123 117 -257 240 -298 273 -174 143 -301 307 -460 597 -29 53 -57
97 -60 97 -4 0 -24 -13 -45 -30 -21 -16 -47 -30 -58 -30 -13 0 -96 77 -236
219 -208 211 -277 268 -388 324 -42 22 -55 35 -73 75 l-22 48 -62 -4 c-144 -9
-253 40 -496 221 -119 89 -189 150 -250 218 -46 52 -166 177 -265 279 -184
189 -302 326 -335 392 -77 147 0 309 173 369 70 25 193 24 289 0z m11712 -125
c28 -20 69 -51 91 -70 l40 -34 -24 -43 c-14 -24 -50 -83 -82 -130 -211 -316
-497 -565 -859 -749 -159 -80 -452 -200 -491 -200 -12 0 -59 72 -53 81 2 4 66
50 142 102 181 124 316 225 492 368 184 148 183 147 174 194 l-7 37 -71 -4
-72 -3 -59 -61 c-67 -68 -109 -86 -290 -124 -64 -14 -123 -34 -164 -56 -56
-31 -67 -34 -94 -25 -50 18 -58 15 -46 -16 15 -41 13 -116 -5 -151 -8 -17 -32
-44 -53 -61 -48 -39 -182 -96 -195 -83 -6 6 26 66 93 168 56 88 109 167 117
176 17 21 296 219 424 302 49 32 116 70 150 85 95 42 229 84 238 75 5 -5 13
-51 19 -103 6 -51 13 -96 15 -99 10 -9 141 29 203 59 103 50 135 112 116 226
-7 36 -16 70 -22 76 -8 8 -57 -9 -165 -56 -85 -37 -157 -67 -160 -67 -3 0 -6
6 -6 14 0 23 111 117 169 144 46 21 62 24 116 18 56 -6 69 -3 126 24 80 39
121 36 193 -14z m-10902 -521 c26 -49 47 -95 48 -101 0 -10 -41 -34 -60 -34
-13 0 -100 174 -100 199 0 22 15 31 45 28 14 -1 34 -28 67 -92z m7319 -507
c77 -90 143 -169 146 -175 5 -13 -109 -148 -139 -164 -14 -8 -28 -1 -66 35
-61 57 -88 111 -130 261 -45 161 -45 166 -2 187 19 9 38 17 42 18 4 0 71 -73
149 -162z m2081 -189 c30 -131 32 -149 16 -149 -6 0 -47 21 -90 46 l-78 46 18
32 c11 17 34 57 52 89 17 32 37 56 44 54 6 -2 23 -55 38 -118z m-2872 55 c0
-39 -16 -60 -60 -78 -45 -18 -106 -21 -143 -7 -30 12 -97 79 -97 98 0 10 31
13 150 13 l150 0 0 -26z m2710 -135 c0 -16 -132 -230 -188 -304 -24 -33 -356
-370 -737 -750 -381 -379 -699 -701 -705 -714 -40 -80 -30 -151 31 -205 43
-40 77 -51 209 -67 52 -6 100 -16 106 -21 20 -15 -6 -75 -53 -128 -51 -57
-107 -83 -228 -105 -50 -9 -133 -27 -185 -40 -52 -14 -135 -29 -185 -35 -49
-6 -133 -18 -186 -27 -126 -21 -178 -13 -229 34 -39 35 -70 100 -84 175 -8 44
-103 -52 864 874 332 318 703 676 825 795 269 263 330 310 590 456 130 73 155
83 155 62z m-2353 -44 c98 -9 183 -17 189 -19 7 -3 9 -29 6 -79 -6 -93 4 -125
79 -253 78 -133 102 -202 97 -277 -4 -54 -8 -61 -59 -113 -96 -99 -164 -118
-331 -92 -163 24 -227 -30 -269 -225 -35 -164 -80 -240 -346 -580 -46 -58 -83
-109 -83 -114 0 -9 189 -180 218 -197 17 -10 67 23 127 84 82 84 130 98 205
60 49 -25 50 -40 14 -142 -102 -284 -272 -456 -509 -514 -121 -30 -433 -19
-401 14 4 4 89 28 189 53 158 39 182 48 182 65 0 18 -7 19 -110 17 -60 -2
-140 -5 -178 -9 -54 -4 -68 -2 -73 10 -3 9 21 53 61 110 61 88 65 96 43 96
-13 0 -120 -13 -238 -30 -118 -17 -216 -30 -217 -30 -14 0 16 -37 122 -150 69
-73 125 -139 125 -146 0 -12 -105 -14 -621 -14 -484 0 -620 3 -617 12 3 9 247
117 362 161 5 1 -2 31 -14 65 -19 51 -22 76 -18 149 5 100 34 173 125 319 58
92 105 182 122 236 14 43 12 43 204 59 116 9 141 9 152 -2 7 -8 25 -49 40 -91
24 -66 31 -78 50 -78 44 0 149 39 201 75 88 61 126 132 150 277 23 146 57 188
151 188 53 0 123 -21 123 -37 0 -5 -20 -60 -46 -122 -46 -116 -51 -147 -23
-164 12 -7 43 9 138 72 121 81 122 83 116 114 -21 106 -62 149 -213 226 -116
60 -171 108 -198 174 -10 26 -22 47 -25 47 -3 0 -56 -65 -119 -145 -62 -80
-119 -145 -126 -145 -7 0 -18 19 -24 43 -6 23 -22 83 -36 132 -13 50 -24 98
-24 107 0 18 285 258 307 258 7 0 39 -32 70 -71 64 -77 54 -75 158 -41 33 11
100 29 148 40 111 26 170 60 208 120 16 25 68 145 116 267 47 121 91 226 96
233 12 15 9 15 224 -3z m-6267 -10 c34 -18 38 -44 12 -69 -18 -15 -21 -15 -45
5 -34 26 -37 79 -5 79 5 0 22 -7 38 -15z m6917 -67 c13 -12 23 -26 23 -32 0
-6 -41 -54 -90 -106 l-89 -94 -31 29 c-16 16 -30 33 -30 39 0 13 171 186 184
186 5 0 20 -10 33 -22z m97 -344 c9 -24 7 -217 -3 -233 -7 -11 -36 -1 -147 51
l-139 65 3 44 c2 24 6 47 10 51 9 9 176 35 233 37 25 1 39 -4 43 -15z m-7192
-468 c253 -64 462 -215 720 -520 95 -112 109 -132 103 -155 -9 -37 -59 -85
-126 -121 -64 -34 -99 -71 -99 -104 1 -32 34 -98 65 -128 40 -40 81 -37 172
13 42 23 78 37 83 33 10 -10 -45 -293 -60 -308 -11 -11 -266 44 -372 80 -105
35 -185 82 -248 146 -63 64 -117 155 -107 181 3 9 65 56 138 104 l131 88 -93
18 c-109 21 -182 54 -234 104 -45 43 -82 120 -91 186 -4 26 -10 49 -14 52 -4
2 -90 -5 -191 -15 -101 -11 -187 -20 -191 -20 -9 0 -38 55 -38 72 0 8 28 30
63 50 82 49 127 97 177 191 41 75 43 77 80 77 20 0 80 -11 132 -24z m3774 -40
c5 -13 -45 -203 -67 -255 -8 -20 -15 -23 -44 -18 -68 11 -125 44 -140 81 -42
101 13 172 154 196 71 12 91 11 97 -4z m-463 -180 c24 -19 21 -35 -18 -88 -39
-53 -53 -58 -80 -28 -20 22 -18 30 24 88 33 45 45 49 74 28z m4882 -48 c9 -24
125 -673 125 -699 0 -26 -7 -29 -230 -104 l-231 -77 -42 48 c-23 27 -90 100
-150 162 -75 78 -105 116 -100 126 14 24 598 555 611 555 7 1 15 -5 17 -11z
m-5443 -62 c24 -28 44 -102 58 -210 6 -49 18 -105 26 -125 18 -43 61 -101 75
-101 6 0 90 57 186 126 97 69 182 128 189 131 18 7 26 -17 59 -179 19 -90 33
-138 41 -138 7 0 50 40 95 89 90 98 139 131 193 131 50 0 104 -24 115 -52 5
-13 17 -101 27 -196 15 -149 15 -175 3 -186 -8 -8 -58 -33 -112 -56 l-98 -42
41 -35 c58 -50 70 -80 85 -218 13 -118 26 -158 67 -217 7 -9 9 -20 5 -24 -12
-12 -600 27 -615 41 -11 10 -11 24 -3 72 6 33 9 68 5 77 -3 9 -34 31 -68 50
-83 46 -255 120 -262 113 -3 -3 9 -57 27 -120 17 -63 29 -122 26 -130 -3 -8
-44 -27 -90 -42 -75 -24 -97 -27 -179 -23 -78 3 -103 9 -158 35 -66 31 -150
96 -150 115 0 6 38 62 85 125 47 63 88 119 91 126 2 7 -70 63 -171 131 -103
71 -175 126 -175 135 1 14 247 331 451 579 l60 73 27 -17 c15 -10 35 -27 44
-38z m-2926 -210 c41 -19 74 -39 74 -44 0 -5 -21 -29 -47 -52 -141 -128 -153
-141 -153 -173 0 -78 136 -238 285 -336 153 -100 356 -192 560 -255 119 -37
289 -78 585 -141 279 -60 343 -81 451 -145 82 -49 97 -65 72 -78 -72 -38 -445
-48 -648 -18 -206 31 -598 140 -818 227 -219 87 -415 202 -562 327 -207 178
-247 349 -133 577 79 158 171 189 334 111z m9112 -305 c55 -44 103 -85 107
-91 12 -19 -62 -118 -165 -221 -175 -176 -344 -265 -708 -375 -917 -276 -1767
-435 -2587 -484 -99 -6 -398 -15 -665 -20 -267 -5 -611 -17 -765 -25 -380 -22
-546 -6 -792 77 -125 42 -338 148 -338 168 0 9 25 24 65 38 l65 24 225 -16
c769 -54 1517 -41 2225 40 121 13 339 38 485 54 698 78 761 88 1135 180 494
122 1158 331 1251 394 28 19 115 102 194 185 79 83 149 151 156 151 7 0 58
-36 112 -79z m-7268 -330 c32 -68 63 -128 67 -132 5 -5 68 28 141 72 73 45
138 79 145 76 20 -7 162 -366 150 -378 -9 -9 -347 40 -797 116 -212 36 -232
43 -273 105 -28 41 -29 75 -3 118 30 49 45 50 125 8 l71 -38 145 91 c79 50
150 90 157 88 7 -1 40 -58 72 -126z m7195 -221 c7 -11 -26 -218 -55 -348 -72
-323 -186 -516 -354 -596 -67 -33 -195 -66 -251 -66 -22 0 -25 4 -25 33 0 40
18 75 71 138 23 28 40 51 38 53 -2 2 -55 34 -116 71 -99 60 -137 95 -102 95
18 0 252 -20 287 -24 20 -3 32 0 32 7 0 7 -20 46 -45 87 -25 41 -45 80 -45 86
0 6 19 19 41 30 60 26 115 85 193 204 96 147 147 198 225 226 43 16 97 18 106
4z m-8945 -190 c228 -105 419 -195 423 -199 5 -5 22 -112 38 -237 16 -126 31
-238 34 -250 4 -17 28 -27 136 -59 72 -21 133 -44 136 -52 13 -35 -90 -102
-169 -109 -36 -4 -76 1 -128 16 -148 41 -210 51 -311 48 l-98 -3 112 -66 c147
-87 144 -86 261 -125 176 -60 216 -106 216 -251 0 -95 -8 -86 152 -172 163
-87 143 -91 -122 -26 -101 25 -190 44 -198 43 -10 -2 2 -19 34 -51 58 -58 151
-104 291 -145 113 -34 188 -65 214 -88 13 -11 18 -40 23 -117 4 -56 9 -123 12
-148 l5 -46 132 -38 c73 -21 136 -39 142 -39 5 -1 15 56 21 128 7 70 16 132
21 137 6 6 60 -1 134 -16 132 -27 857 -132 1137 -165 320 -38 660 -45 1427
-31 385 7 894 15 1130 18 l430 5 140 -44 c81 -26 140 -50 140 -57 0 -6 -79
-47 -176 -90 -97 -43 -192 -87 -211 -99 -71 -44 -73 -96 -7 -184 21 -29 39
-58 39 -65 0 -16 -15 -9 -176 83 -61 35 -114 64 -118 64 -15 0 -4 -60 24 -130
16 -41 29 -92 30 -113 0 -47 -27 -102 -75 -147 -20 -19 -50 -54 -66 -77 -34
-48 -162 -284 -157 -288 6 -6 457 64 581 90 160 33 344 90 637 197 521 191
608 221 703 239 54 10 109 19 122 19 14 0 25 6 25 13 0 6 -14 69 -32 139 -18
70 -29 130 -25 134 4 4 56 0 115 -10 59 -10 115 -17 124 -15 16 4 362 478 355
486 -2 2 -69 -13 -149 -32 -81 -19 -153 -35 -162 -35 -46 0 18 86 91 121 37
18 64 22 147 23 98 1 101 0 104 -21 4 -27 -3 -27 97 -3 63 15 85 25 107 49 27
31 36 51 21 51 -5 0 -51 -14 -103 -30 -52 -16 -101 -30 -109 -30 -11 0 -13 13
-8 65 4 36 11 74 18 86 14 27 288 160 471 228 134 50 168 59 168 43 0 -12
-166 -283 -257 -417 -270 -402 -527 -643 -850 -797 -83 -40 -118 -63 -151 -99
-55 -61 -119 -108 -210 -154 -78 -39 -502 -198 -689 -259 -578 -187 -1286
-267 -2091 -237 -477 18 -646 31 -1112 91 -360 47 -532 108 -795 283 -162 107
-411 317 -463 390 -35 50 -76 130 -148 291 -66 146 -95 186 -133 186 -16 0
-34 -6 -40 -14 -13 -15 -85 -36 -125 -36 -14 0 -26 -3 -26 -6 0 -4 63 -96 140
-206 77 -109 140 -203 140 -208 0 -15 -11 -13 -85 15 -132 50 -156 69 -465
351 -339 310 -576 579 -772 879 -117 178 -145 241 -164 365 -9 58 -19 112 -23
120 -5 8 -22 16 -39 18 -20 2 -41 14 -58 35 -37 43 -145 272 -189 397 -44 129
-164 562 -158 573 2 4 10 7 17 7 6 0 199 -86 426 -190z m2889 -137 c13 -25 36
-201 28 -210 -4 -4 -69 11 -145 33 -134 39 -137 40 -140 69 -2 17 3 38 10 47
11 14 186 74 225 77 7 1 16 -7 22 -16z m-1664 -258 c93 -15 280 -31 1395 -120
311 -25 653 -55 760 -68 172 -19 242 -22 600 -21 266 0 557 8 846 22 698 35
777 31 847 -38 36 -36 37 -40 37 -108 l0 -69 48 -6 c26 -3 49 -3 51 -1 4 4
-30 174 -45 226 -4 12 5 24 28 37 30 19 34 19 58 4 60 -39 140 -109 140 -122
0 -8 -11 -27 -25 -41 l-26 -27 92 -77 c61 -53 88 -81 81 -88 -6 -6 -36 -16
-67 -23 -96 -23 -125 3 -125 111 0 50 -2 54 -18 45 -21 -11 -78 -69 -202 -208
-51 -58 -100 -103 -110 -103 -10 0 -62 14 -116 30 -54 17 -103 29 -108 27 -6
-2 67 -61 162 -132 95 -70 171 -133 169 -139 -5 -14 -43 -20 -242 -40 -467
-47 -995 -71 -1325 -62 -124 4 -490 22 -815 41 -324 19 -806 46 -1070 60 -264
14 -523 30 -575 36 -215 24 -375 75 -506 160 -78 51 -214 176 -214 196 0 7 23
24 52 40 63 34 98 82 98 133 0 20 -9 79 -20 131 -32 150 -25 209 25 209 14 0
68 -7 120 -15z m5155 -115 c12 -7 12 -13 4 -27 -9 -15 -28 -18 -115 -21 -57
-2 -114 0 -126 3 -25 6 -32 40 -10 48 22 10 232 7 247 -3z m40 -236 c0 -37
-94 -164 -121 -164 -18 0 -49 20 -49 33 0 16 141 157 157 157 7 0 13 -12 13
-26z m-482 -359 c61 -79 112 -148 112 -153 0 -11 0 -11 -133 -59 -54 -19 -104
-32 -112 -29 -12 4 -15 37 -15 185 0 185 3 213 23 205 7 -3 63 -70 125 -149z
m-3112 -426 c19 -11 34 -29 34 -39 0 -19 -56 -60 -83 -60 -16 0 -77 64 -77 80
0 12 50 39 74 40 10 0 34 -9 52 -21z m2234 -119 c13 -34 20 -64 16 -68 -11
-10 -80 33 -84 53 -5 23 18 75 33 75 7 0 23 -27 35 -60z m-2496 -1 c31 -25 32
-38 5 -73 -26 -33 -51 -33 -90 2 l-31 28 27 32 c31 37 52 40 89 11z m2173 -34
c46 -19 65 -53 53 -94 -11 -39 -56 -101 -73 -101 -17 0 -112 194 -102 209 8
14 71 7 122 -14z m-2417 -40 c27 -28 31 -37 21 -49 -14 -16 -91 -56 -109 -56
-15 0 -62 51 -62 67 0 16 78 73 100 73 9 0 31 -16 50 -35z m1941 -32 c5 -15 9
-38 7 -52 -3 -23 -11 -27 -98 -48 -123 -29 -146 -29 -153 -1 -10 37 10 55 95
86 46 16 90 32 98 35 30 11 41 7 51 -20z m-1043 -73 c29 -18 31 -22 21 -43
-32 -62 -55 -69 -106 -34 -44 30 -46 41 -16 71 31 31 57 33 101 6z m2568 -478
c6 -4 17 -18 24 -31 11 -22 10 -27 -10 -43 -29 -23 -47 -23 -60 1 -23 43 -12
71 30 80 3 0 10 -3 16 -7z"/>
<path d="M8856 4315 c-21 -7 -56 -31 -78 -52 -56 -54 -130 -203 -100 -203 27
0 288 72 308 85 13 8 36 34 51 56 l27 41 -29 25 c-79 65 -108 73 -179 48z"/>
<path d="M7503 4365 c-6 -17 60 -125 77 -125 21 0 19 23 -10 80 -30 59 -55 76
-67 45z"/>
<path d="M4730 4402 c0 -15 65 -90 108 -125 57 -46 132 -76 221 -89 87 -13 95
-10 106 33 6 26 4 27 -197 102 -112 42 -211 79 -220 82 -10 4 -18 3 -18 -3z"/>
<path d="M7132 1493 c-18 -9 -41 -28 -52 -43 -22 -31 -47 -116 -37 -126 3 -3
36 -3 72 1 l66 7 -16 24 c-28 43 -16 67 45 89 79 29 87 35 65 52 -25 18 -103
16 -143 -4z"/>
<path d="M6955 1083 c-15 -49 -43 -122 -62 -164 -50 -109 -47 -113 61 -117
l88 -3 -6 108 c-15 249 -17 263 -36 263 -15 0 -25 -19 -45 -87z"/>
<path d="M7370 2921 c0 -19 4 -21 43 -15 23 4 58 10 77 14 l35 8 -31 1 c-17 1
-52 4 -78 7 -42 6 -46 5 -46 -15z"/>
<path d="M4671 7287 c-67 -23 -74 -46 -85 -250 -5 -100 -9 -265 -10 -367 -1
-211 8 -259 75 -397 l40 -83 -15 -57 c-14 -53 -14 -59 2 -68 36 -21 79 -74 90
-112 6 -21 17 -75 23 -118 11 -82 27 -125 62 -162 l20 -23 -76 -115 c-43 -63
-77 -118 -77 -121 0 -10 121 4 177 21 90 27 135 80 135 160 0 60 -24 99 -109
182 l-75 73 36 206 c32 182 35 209 22 223 -8 9 -60 54 -115 101 -92 78 -118
106 -108 117 8 8 340 133 353 133 19 0 20 -6 53 -379 16 -183 31 -335 33 -337
2 -2 37 7 78 20 41 13 107 32 145 42 87 21 141 68 151 131 3 22 10 46 14 53 5
7 45 19 90 26 45 7 99 22 119 32 50 25 81 88 81 167 1 73 12 124 53 238 35 97
41 101 107 67 90 -46 137 -121 196 -312 30 -97 58 -152 77 -145 6 2 23 26 37
53 24 48 25 53 23 248 -1 109 -5 202 -10 207 -4 4 -136 29 -293 55 -157 26
-289 51 -294 55 -6 6 -4 35 7 76 25 103 30 149 22 211 -6 45 -13 62 -40 89
-30 30 -39 33 -92 33 -102 0 -193 -36 -392 -154 -52 -31 -101 -56 -109 -56 -7
0 -48 31 -90 70 -112 101 -180 149 -236 165 -58 17 -51 17 -95 2z m195 -212
c18 -7 79 -58 136 -114 83 -80 114 -103 149 -112 87 -23 110 -4 144 124 24 91
34 97 165 97 58 0 111 -4 119 -9 11 -7 5 -69 -32 -360 -25 -194 -47 -355 -50
-358 -8 -8 -80 11 -183 49 -67 24 -98 42 -135 77 -59 58 -69 91 -76 253 l-6
128 -36 -5 c-93 -13 -209 -25 -243 -25 l-38 0 0 133 c0 74 3 137 7 140 7 8 28
3 79 -18z m413 -844 c6 -10 13 -44 17 -74 6 -49 4 -56 -14 -66 -11 -6 -34 -11
-50 -11 -27 0 -30 3 -36 46 -11 81 -8 112 12 117 38 10 62 6 71 -12z"/>
</g>
</svg>
